<svg version="1.1" id="Layer_1" xmlns="http://www.w3.org/2000/svg" xmlns:xlink="http://www.w3.org/1999/xlink" x="0px" y="0px"
	 width="100%" viewBox="0 0 320 320" enable-background="new 0 0 320 320" xml:space="preserve">
<path fill="#000000" opacity="1.000000" stroke="none" 
	d="
M154.000000,321.000000 
	C102.666679,321.000000 51.833351,321.000000 1.000021,321.000000 
	C1.000014,214.333359 1.000014,107.666725 1.000007,1.000063 
	C107.666618,1.000042 214.333237,1.000042 320.999878,1.000021 
	C320.999939,107.666595 320.999939,214.333191 320.999969,320.999878 
	C265.500000,321.000000 210.000000,321.000000 154.000000,321.000000 
M105.870300,246.629181 
	C113.469864,253.625946 117.692337,253.546310 125.005043,246.259003 
	C129.725082,241.555359 134.660156,237.044754 139.113586,232.100601 
	C152.413055,217.335693 169.594604,206.026855 178.815781,187.616180 
	C179.247162,186.754883 180.088791,186.083298 180.792938,185.376740 
	C193.965317,172.158951 207.170547,158.973755 220.306885,145.720245 
	C223.513306,142.485199 227.337265,140.731552 231.778244,140.255493 
	C235.576187,139.848373 238.674988,141.251587 239.205566,145.206070 
	C240.339401,153.656799 246.536240,158.364929 252.047302,163.613052 
	C254.298676,165.756989 256.840942,165.880920 259.150391,163.595261 
	C265.425507,157.384872 271.682037,151.155060 277.883881,144.871719 
	C279.564453,143.169067 280.251007,140.944748 278.501465,139.026871 
	C273.493958,133.537598 269.101074,127.236816 261.204071,125.326370 
	C256.178406,124.110565 251.898560,121.055977 250.664276,116.257408 
	C248.462830,107.698837 242.043732,102.704376 236.638245,96.668404 
	C221.063263,79.276833 202.460266,84.366425 184.205933,96.883400 
	C182.591217,97.990616 181.708069,99.729431 182.759155,101.682045 
	C183.669556,103.373337 185.323608,103.694183 187.097794,103.207573 
	C194.644440,101.137733 200.306335,104.410606 205.477890,109.455795 
	C213.225754,117.014343 213.398972,123.524361 205.759033,131.211243 
	C195.070541,141.965408 184.282120,152.620575 173.630508,163.410934 
	C168.119354,168.993866 162.739868,174.641113 155.215103,177.646103 
	C152.391037,178.773880 150.436508,181.229324 148.320770,183.346161 
	C134.069412,197.605072 119.837700,211.883636 105.601807,226.157990 
	C98.127655,233.652283 98.067291,238.604279 105.870300,246.629181 
M59.933926,135.466171 
	C57.142090,138.339081 54.344757,141.443405 57.992222,145.323685 
	C63.802719,151.505066 69.873749,157.444855 75.928734,163.390930 
	C77.555984,164.988907 79.945999,166.011826 81.813179,164.346619 
	C87.091446,159.639297 93.157036,155.553848 95.187416,148.063766 
	C97.381714,139.968948 100.353088,138.601791 108.290199,141.430573 
	C111.040291,142.410706 113.228317,144.083328 115.247223,146.126480 
	C122.970436,153.942459 130.744629,161.708023 138.488785,169.503342 
	C144.416855,175.470566 144.396362,175.455933 151.338654,171.296310 
	C153.047424,170.272476 154.888733,169.472534 156.640961,168.517975 
	C162.034866,165.579590 162.289261,164.066467 157.962723,159.726074 
	C148.207840,149.939987 138.369003,140.237320 128.646866,130.418976 
	C123.390572,125.110680 122.027283,118.137833 125.715263,113.819366 
	C131.659088,106.859398 137.979370,100.306763 148.636444,103.375740 
	C150.285034,103.850494 152.056229,103.460823 152.883148,101.634354 
	C153.601898,100.046806 152.934433,98.533829 151.696365,97.618095 
	C141.447754,90.037796 130.241653,83.530182 117.222069,86.001801 
	C102.176903,88.857971 92.674950,99.840935 86.162247,113.091484 
	C83.625664,118.252365 81.085022,123.203506 75.433899,124.775627 
	C69.123459,126.531158 64.511078,130.204956 59.933926,135.466171 
M207.124359,243.377228 
	C209.037659,245.233292 210.910767,247.133163 212.874619,248.934097 
	C215.214172,251.079575 218.109909,252.290466 221.155930,251.508316 
	C227.943344,249.765411 232.300140,244.973389 234.801437,238.703842 
	C236.788376,233.723557 233.564606,230.152573 230.334290,226.910370 
	C218.809921,215.343521 207.279037,203.782593 195.670532,192.300400 
	C189.929260,186.621582 187.489090,187.019150 183.445267,194.298889 
	C181.428284,197.929886 180.099976,202.005066 177.050476,204.952591 
	C173.859344,208.037033 173.984802,210.396698 177.264893,213.563339 
	C187.212845,223.167160 196.860580,233.081970 207.124359,243.377228 
z"/>
</svg>